<svg xmlns="http://www.w3.org/2000/svg" viewBox="0 0 128 128" role="img" aria-label="OneSync">
  <defs>
    <linearGradient id="osTile" x1="18" y1="12" x2="112" y2="118" gradientUnits="userSpaceOnUse">
      <stop offset="0" stop-color="#FFFFFF"/>
      <stop offset="0.58" stop-color="#F4FBFF"/>
      <stop offset="1" stop-color="#E6F3FC"/>
    </linearGradient>
    <linearGradient id="osBlue" x1="45" y1="28" x2="88" y2="98" gradientUnits="userSpaceOnUse">
      <stop offset="0" stop-color="#2F7CF4"/>
      <stop offset="1" stop-color="#1E6FD6"/>
    </linearGradient>
  </defs>
  <rect x="10" y="10" width="108" height="108" rx="30" fill="url(#osTile)" stroke="#D8EAF7" stroke-width="2"/>
  <g fill="none" stroke-linecap="round">
    <path d="M64 64 40 43M64 64 88 43M64 64h32M64 64 88 85M64 64 40 85M64 64H32M64 64V32M64 64v32" stroke="#8EC9F4" stroke-width="5"/>
    <path d="M64 64 88 85" stroke="#FF7A1A" stroke-width="5"/>
  </g>
  <circle cx="64" cy="64" r="17" fill="url(#osBlue)" stroke="#FFFFFF" stroke-width="5"/>
  <g>
    <circle cx="64" cy="32" r="5.5" fill="#2F7CF4"/>
    <circle cx="88" cy="43" r="5.5" fill="#2F7CF4"/>
    <circle cx="96" cy="64" r="5.5" fill="#2F7CF4"/>
    <circle cx="88" cy="85" r="5.8" fill="#FF7A1A"/>
    <circle cx="64" cy="96" r="5.5" fill="#2F7CF4"/>
    <circle cx="40" cy="85" r="5.5" fill="#2F7CF4"/>
    <circle cx="32" cy="64" r="5.5" fill="#2F7CF4"/>
    <circle cx="40" cy="43" r="5.5" fill="#2F7CF4"/>
  </g>
</svg>
