<svg xmlns="http://www.w3.org/2000/svg" viewBox="0 0 1200 630" role="img" aria-label="OneSync">
  <defs>
    <linearGradient id="ogBg" x1="0" y1="0" x2="1200" y2="630" gradientUnits="userSpaceOnUse">
      <stop offset="0" stop-color="#FFFFFF"/>
      <stop offset="0.55" stop-color="#F8FCFF"/>
      <stop offset="1" stop-color="#EAF4FF"/>
    </linearGradient>
    <linearGradient id="osBlue" x1="208" y1="172" x2="380" y2="452" gradientUnits="userSpaceOnUse">
      <stop offset="0" stop-color="#2F7CF4"/>
      <stop offset="1" stop-color="#1E6FD6"/>
    </linearGradient>
  </defs>
  <rect width="1200" height="630" fill="url(#ogBg)"/>
  <path d="M0 512 C270 414 420 610 665 505 C842 429 975 466 1200 385 L1200 630 L0 630Z" fill="#EAF8FF"/>
  <rect x="150" y="145" width="260" height="260" rx="64" fill="#FFFFFF" stroke="#D8EAF7" stroke-width="5"/>
  <g fill="none" stroke-linecap="round">
    <path d="M280 275 230 230M280 275 330 230M280 275h68M280 275 330 322M280 275 230 322M280 275h-68M280 275v-68M280 275v68" stroke="#8EC9F4" stroke-width="12"/>
    <path d="M280 275 330 322" stroke="#FF7A1A" stroke-width="12"/>
  </g>
  <circle cx="280" cy="275" r="43" fill="url(#osBlue)" stroke="#FFFFFF" stroke-width="12"/>
  <g>
    <circle cx="280" cy="207" r="13" fill="#2F7CF4"/>
    <circle cx="330" cy="230" r="13" fill="#2F7CF4"/>
    <circle cx="348" cy="275" r="13" fill="#2F7CF4"/>
    <circle cx="330" cy="322" r="14" fill="#FF7A1A"/>
    <circle cx="280" cy="343" r="13" fill="#2F7CF4"/>
    <circle cx="230" cy="322" r="13" fill="#2F7CF4"/>
    <circle cx="212" cy="275" r="13" fill="#2F7CF4"/>
    <circle cx="230" cy="230" r="13" fill="#2F7CF4"/>
  </g>
  <text x="500" y="275" font-family="Geist, Inter, DM Sans, Arial, sans-serif" font-size="92" font-weight="850" letter-spacing="-1" fill="#071126">OneSync</text>
  <text x="505" y="340" font-family="DM Sans, Inter, Arial, sans-serif" font-size="31" font-weight="700" letter-spacing="1.2" fill="#52677F">One Place. Everything Synced.</text>
  <text x="505" y="405" font-family="DM Sans, Inter, Arial, sans-serif" font-size="23" font-weight="650" fill="#40516B">One intelligent hub for ERP, CRM, governance, AI, and operations.</text>
</svg>
