<svg xmlns="http://www.w3.org/2000/svg" viewBox="0 0 128 128" role="img" aria-label="OneSync">
  <rect x="10" y="10" width="108" height="108" rx="30" fill="#FFFFFF" stroke="#D8EAF7" stroke-width="2"/>
  <g fill="none" stroke-linecap="round">
    <path d="M64 64 40 43" stroke="#A8B9CC" stroke-width="5"/>
    <path d="M64 64 88 43" stroke="#A8B9CC" stroke-width="5"/>
    <path d="M64 64h32" stroke="#A8B9CC" stroke-width="5"/>
    <path d="M64 64 88 85" stroke="#0F172A" stroke-width="5"/>
    <path d="M64 64 40 85" stroke="#A8B9CC" stroke-width="5"/>
    <path d="M64 64H32" stroke="#A8B9CC" stroke-width="5"/>
    <path d="M64 64V32" stroke="#A8B9CC" stroke-width="5"/>
    <path d="M64 64v32" stroke="#A8B9CC" stroke-width="5"/>
  </g>
  <circle cx="64" cy="64" r="17" fill="#0F172A" stroke="#FFFFFF" stroke-width="5"/>
  <g fill="#536479">
    <circle cx="64" cy="32" r="5.5"/>
    <circle cx="88" cy="43" r="5.5"/>
    <circle cx="96" cy="64" r="5.5"/>
    <circle cx="64" cy="96" r="5.5"/>
    <circle cx="40" cy="85" r="5.5"/>
    <circle cx="32" cy="64" r="5.5"/>
    <circle cx="40" cy="43" r="5.5"/>
  </g>
  <circle cx="88" cy="85" r="5.8" fill="#0F172A"/>
  <circle cx="64" cy="64" r="7" fill="#FFFFFF" opacity="0.92"/>
</svg>
